<svg width="28" height="28" viewBox="0 0 28 28" fill="none" xmlns="http://www.w3.org/2000/svg">
<g clip-path="url(#clip0_269_426)">
<path d="M13.6249 2.12451C10.4754 2.12451 7.45498 3.37562 5.22798 5.60262C3.00099 7.82961 1.74988 10.8501 1.74988 13.9995C1.74988 17.149 3.00099 20.1694 5.22798 22.3964C7.45498 24.6234 10.4754 25.8745 13.6249 25.8745C16.7743 25.8745 19.7948 24.6234 22.0218 22.3964C24.2488 20.1694 25.4999 17.149 25.4999 13.9995C25.4999 10.8501 24.2488 7.82961 22.0218 5.60262C19.7948 3.37562 16.7743 2.12451 13.6249 2.12451Z" fill="#039BE5"/>
<path d="M15.2326 17.1479H18.3058L18.7883 14.026H15.232V12.3197C15.232 11.0229 15.6558 9.87285 16.8689 9.87285H18.8183V7.14848C18.4758 7.10223 17.7514 7.00098 16.3826 7.00098C13.5245 7.00098 11.8489 8.51035 11.8489 11.9491V14.026H8.91077V17.1479H11.8489V25.7285C12.4308 25.816 13.0201 25.8754 13.6251 25.8754C14.172 25.8754 14.7058 25.8254 15.2326 25.7541V17.1479Z" fill="white"/>
</g>
<defs>
<clipPath id="clip0_269_426">
<rect width="27" height="27" fill="white" transform="translate(0.125 0.5)"/>
</clipPath>
</defs>
</svg>
